@startuml namespaces-discovery
hide empty fields
hide empty methods

namespace lxkns {
  
  class Discover as " " <<(F,LightGray)>> {
    Discover(opts DiscoverOpts) *DiscoveryResult
  }
  
  Discover <.. DiscoverOpts : "controls"
  Discover ..> DiscoveryResult : "returns"
  
  class "DiscoverOpts" <<(S,YellowGreen)>> {
    NamespaceTypes species.NamespaceType
    ScanProcs bool
    ScanTasks bool
    ScanFds bool
    ScanBindmounts bool
    DiscoverHierarchy bool
    DiscoverOwnership bool
    DiscoverFreezerState bool
    DiscoverMounts bool
    Containerizer containerizer.Containerizer
  }
  
  class "DiscoveryResult" <<(S,YellowGreen)>> {
    Options DiscoverOpts
    Namespaces model.AllNamespaces
    InitialNamespaces model.NamespacesSet
    ' TODO: Root(s)
    Processes model.ProcessTable
    Mounts NamespacedMountPathMap
    Containers []*model.Container
  }
  
}

@enduml
